G04 #@! TF.FileFunction,Copper,L1,Top,Signal*
%FSLAX46Y46*%
G04 Gerber Fmt 4.6, Leading zero omitted, Abs format (unit mm)*
G04 Created by KiCad (PCBNEW 4.0.7-e2-6376~58~ubuntu16.04.1) date Mon Dec  4 17:26:15 2017*
%MOMM*%
%LPD*%
G01*
G04 APERTURE LIST*
%ADD10C,0.100000*%
%ADD11C,0.200000*%
%ADD12R,1.700000X1.700000*%
%ADD13O,1.700000X1.700000*%
%ADD14C,1.700000*%
%ADD15C,0.250000*%
G04 APERTURE END LIST*
D10*
D11*
X113491142Y-107464381D02*
X113491142Y-106464381D01*
X113729237Y-106464381D01*
X113872095Y-106512000D01*
X113967333Y-106607238D01*
X114014952Y-106702476D01*
X114062571Y-106892952D01*
X114062571Y-107035810D01*
X114014952Y-107226286D01*
X113967333Y-107321524D01*
X113872095Y-107416762D01*
X113729237Y-107464381D01*
X113491142Y-107464381D01*
X114443523Y-107178667D02*
X114919714Y-107178667D01*
X114348285Y-107464381D02*
X114681618Y-106464381D01*
X115014952Y-107464381D01*
X115919714Y-107369143D02*
X115872095Y-107416762D01*
X115729238Y-107464381D01*
X115634000Y-107464381D01*
X115491142Y-107416762D01*
X115395904Y-107321524D01*
X115348285Y-107226286D01*
X115300666Y-107035810D01*
X115300666Y-106892952D01*
X115348285Y-106702476D01*
X115395904Y-106607238D01*
X115491142Y-106512000D01*
X115634000Y-106464381D01*
X115729238Y-106464381D01*
X115872095Y-106512000D01*
X115919714Y-106559619D01*
X117062571Y-107416762D02*
X117205428Y-107464381D01*
X117443524Y-107464381D01*
X117538762Y-107416762D01*
X117586381Y-107369143D01*
X117634000Y-107273905D01*
X117634000Y-107178667D01*
X117586381Y-107083429D01*
X117538762Y-107035810D01*
X117443524Y-106988190D01*
X117253047Y-106940571D01*
X117157809Y-106892952D01*
X117110190Y-106845333D01*
X117062571Y-106750095D01*
X117062571Y-106654857D01*
X117110190Y-106559619D01*
X117157809Y-106512000D01*
X117253047Y-106464381D01*
X117491143Y-106464381D01*
X117634000Y-106512000D01*
X118491143Y-106797714D02*
X118491143Y-107464381D01*
X118062571Y-106797714D02*
X118062571Y-107321524D01*
X118110190Y-107416762D01*
X118205428Y-107464381D01*
X118348286Y-107464381D01*
X118443524Y-107416762D01*
X118491143Y-107369143D01*
X118967333Y-107464381D02*
X118967333Y-106797714D01*
X118967333Y-106892952D02*
X119014952Y-106845333D01*
X119110190Y-106797714D01*
X119253048Y-106797714D01*
X119348286Y-106845333D01*
X119395905Y-106940571D01*
X119395905Y-107464381D01*
X119395905Y-106940571D02*
X119443524Y-106845333D01*
X119538762Y-106797714D01*
X119681619Y-106797714D01*
X119776857Y-106845333D01*
X119824476Y-106940571D01*
X119824476Y-107464381D01*
X120443523Y-107464381D02*
X120348285Y-107416762D01*
X120300666Y-107369143D01*
X120253047Y-107273905D01*
X120253047Y-106988190D01*
X120300666Y-106892952D01*
X120348285Y-106845333D01*
X120443523Y-106797714D01*
X120586381Y-106797714D01*
X120681619Y-106845333D01*
X120729238Y-106892952D01*
X120776857Y-106988190D01*
X120776857Y-107273905D01*
X120729238Y-107369143D01*
X120681619Y-107416762D01*
X120586381Y-107464381D01*
X120443523Y-107464381D01*
X122538762Y-107464381D02*
X122205428Y-106988190D01*
X121967333Y-107464381D02*
X121967333Y-106464381D01*
X122348286Y-106464381D01*
X122443524Y-106512000D01*
X122491143Y-106559619D01*
X122538762Y-106654857D01*
X122538762Y-106797714D01*
X122491143Y-106892952D01*
X122443524Y-106940571D01*
X122348286Y-106988190D01*
X121967333Y-106988190D01*
X123110190Y-107464381D02*
X123014952Y-107416762D01*
X122967333Y-107369143D01*
X122919714Y-107273905D01*
X122919714Y-106988190D01*
X122967333Y-106892952D01*
X123014952Y-106845333D01*
X123110190Y-106797714D01*
X123253048Y-106797714D01*
X123348286Y-106845333D01*
X123395905Y-106892952D01*
X123443524Y-106988190D01*
X123443524Y-107273905D01*
X123395905Y-107369143D01*
X123348286Y-107416762D01*
X123253048Y-107464381D01*
X123110190Y-107464381D01*
X123872095Y-107464381D02*
X123872095Y-106464381D01*
X123872095Y-106845333D02*
X123967333Y-106797714D01*
X124157810Y-106797714D01*
X124253048Y-106845333D01*
X124300667Y-106892952D01*
X124348286Y-106988190D01*
X124348286Y-107273905D01*
X124300667Y-107369143D01*
X124253048Y-107416762D01*
X124157810Y-107464381D01*
X123967333Y-107464381D01*
X123872095Y-107416762D01*
X124919714Y-107464381D02*
X124824476Y-107416762D01*
X124776857Y-107369143D01*
X124729238Y-107273905D01*
X124729238Y-106988190D01*
X124776857Y-106892952D01*
X124824476Y-106845333D01*
X124919714Y-106797714D01*
X125062572Y-106797714D01*
X125157810Y-106845333D01*
X125205429Y-106892952D01*
X125253048Y-106988190D01*
X125253048Y-107273905D01*
X125205429Y-107369143D01*
X125157810Y-107416762D01*
X125062572Y-107464381D01*
X124919714Y-107464381D01*
X125538762Y-106797714D02*
X125919714Y-106797714D01*
X125681619Y-106464381D02*
X125681619Y-107321524D01*
X125729238Y-107416762D01*
X125824476Y-107464381D01*
X125919714Y-107464381D01*
X116562571Y-108164381D02*
X117134000Y-108164381D01*
X116848285Y-109164381D02*
X116848285Y-108164381D01*
X117610190Y-109164381D02*
X117514952Y-109116762D01*
X117467333Y-109069143D01*
X117419714Y-108973905D01*
X117419714Y-108688190D01*
X117467333Y-108592952D01*
X117514952Y-108545333D01*
X117610190Y-108497714D01*
X117753048Y-108497714D01*
X117848286Y-108545333D01*
X117895905Y-108592952D01*
X117943524Y-108688190D01*
X117943524Y-108973905D01*
X117895905Y-109069143D01*
X117848286Y-109116762D01*
X117753048Y-109164381D01*
X117610190Y-109164381D01*
X118372095Y-108497714D02*
X118372095Y-109497714D01*
X118372095Y-108545333D02*
X118467333Y-108497714D01*
X118657810Y-108497714D01*
X118753048Y-108545333D01*
X118800667Y-108592952D01*
X118848286Y-108688190D01*
X118848286Y-108973905D01*
X118800667Y-109069143D01*
X118753048Y-109116762D01*
X118657810Y-109164381D01*
X118467333Y-109164381D01*
X118372095Y-109116762D01*
X120038762Y-109164381D02*
X120038762Y-108164381D01*
X120419715Y-108164381D01*
X120514953Y-108212000D01*
X120562572Y-108259619D01*
X120610191Y-108354857D01*
X120610191Y-108497714D01*
X120562572Y-108592952D01*
X120514953Y-108640571D01*
X120419715Y-108688190D01*
X120038762Y-108688190D01*
X121610191Y-109069143D02*
X121562572Y-109116762D01*
X121419715Y-109164381D01*
X121324477Y-109164381D01*
X121181619Y-109116762D01*
X121086381Y-109021524D01*
X121038762Y-108926286D01*
X120991143Y-108735810D01*
X120991143Y-108592952D01*
X121038762Y-108402476D01*
X121086381Y-108307238D01*
X121181619Y-108212000D01*
X121324477Y-108164381D01*
X121419715Y-108164381D01*
X121562572Y-108212000D01*
X121610191Y-108259619D01*
X122372096Y-108640571D02*
X122514953Y-108688190D01*
X122562572Y-108735810D01*
X122610191Y-108831048D01*
X122610191Y-108973905D01*
X122562572Y-109069143D01*
X122514953Y-109116762D01*
X122419715Y-109164381D01*
X122038762Y-109164381D01*
X122038762Y-108164381D01*
X122372096Y-108164381D01*
X122467334Y-108212000D01*
X122514953Y-108259619D01*
X122562572Y-108354857D01*
X122562572Y-108450095D01*
X122514953Y-108545333D01*
X122467334Y-108592952D01*
X122372096Y-108640571D01*
X122038762Y-108640571D01*
X117657809Y-110864381D02*
X117657809Y-110197714D01*
X117657809Y-110388190D02*
X117705428Y-110292952D01*
X117753047Y-110245333D01*
X117848285Y-110197714D01*
X117943524Y-110197714D01*
X118657810Y-110816762D02*
X118562572Y-110864381D01*
X118372095Y-110864381D01*
X118276857Y-110816762D01*
X118229238Y-110721524D01*
X118229238Y-110340571D01*
X118276857Y-110245333D01*
X118372095Y-110197714D01*
X118562572Y-110197714D01*
X118657810Y-110245333D01*
X118705429Y-110340571D01*
X118705429Y-110435810D01*
X118229238Y-110531048D01*
X119038762Y-110197714D02*
X119276857Y-110864381D01*
X119514953Y-110197714D01*
X119895905Y-110769143D02*
X119943524Y-110816762D01*
X119895905Y-110864381D01*
X119848286Y-110816762D01*
X119895905Y-110769143D01*
X119895905Y-110864381D01*
X121657810Y-110864381D02*
X121086381Y-110864381D01*
X121372095Y-110864381D02*
X121372095Y-109864381D01*
X121276857Y-110007238D01*
X121181619Y-110102476D01*
X121086381Y-110150095D01*
D12*
X154940000Y-99060000D03*
D13*
X152400000Y-99060000D03*
X149860000Y-99060000D03*
X147320000Y-99060000D03*
D12*
X157480000Y-101600000D03*
D13*
X157480000Y-104140000D03*
X154940000Y-101600000D03*
X154940000Y-104140000D03*
X152400000Y-101600000D03*
X152400000Y-104140000D03*
X149860000Y-101600000D03*
X149860000Y-104140000D03*
X147320000Y-101600000D03*
X147320000Y-104140000D03*
D12*
X180340000Y-104140000D03*
D13*
X177800000Y-104140000D03*
X175260000Y-104140000D03*
X195580000Y-81280000D03*
D14*
X195580000Y-83820000D03*
X195580000Y-86360000D03*
X195580000Y-88900000D03*
X195580000Y-91440000D03*
X195580000Y-93980000D03*
X193040000Y-93980000D03*
X193040000Y-91440000D03*
X193040000Y-88900000D03*
X193040000Y-86360000D03*
X193040000Y-83820000D03*
X193040000Y-81280000D03*
X190500000Y-81280000D03*
X190500000Y-83820000D03*
X190500000Y-86360000D03*
X190500000Y-88900000D03*
X190500000Y-91440000D03*
X190500000Y-93980000D03*
X187960000Y-93980000D03*
X187960000Y-91440000D03*
X187960000Y-88900000D03*
X187960000Y-86360000D03*
X187960000Y-83820000D03*
X187960000Y-81280000D03*
D13*
X185420000Y-73660000D03*
D14*
X185420000Y-76200000D03*
X185420000Y-78740000D03*
X185420000Y-81280000D03*
X185420000Y-83820000D03*
X185420000Y-86360000D03*
X182880000Y-86360000D03*
X182880000Y-83820000D03*
X182880000Y-81280000D03*
X182880000Y-78740000D03*
X182880000Y-76200000D03*
X182880000Y-73660000D03*
X180340000Y-73660000D03*
X180340000Y-76200000D03*
X180340000Y-78740000D03*
X180340000Y-81280000D03*
X180340000Y-83820000D03*
X180340000Y-86360000D03*
X177800000Y-86360000D03*
X177800000Y-83820000D03*
X177800000Y-81280000D03*
X177800000Y-78740000D03*
X177800000Y-76200000D03*
X177800000Y-73660000D03*
D13*
X175260000Y-73660000D03*
D14*
X175260000Y-76200000D03*
X175260000Y-78740000D03*
X175260000Y-81280000D03*
X175260000Y-83820000D03*
X175260000Y-86360000D03*
X172720000Y-86360000D03*
X172720000Y-83820000D03*
X172720000Y-81280000D03*
X172720000Y-78740000D03*
X172720000Y-76200000D03*
X172720000Y-73660000D03*
X170180000Y-73660000D03*
X170180000Y-76200000D03*
X170180000Y-78740000D03*
X170180000Y-81280000D03*
X170180000Y-83820000D03*
X170180000Y-86360000D03*
X167640000Y-86360000D03*
X167640000Y-83820000D03*
X167640000Y-81280000D03*
X167640000Y-78740000D03*
X167640000Y-76200000D03*
X167640000Y-73660000D03*
D13*
X165100000Y-73660000D03*
D14*
X165100000Y-76200000D03*
X165100000Y-78740000D03*
X165100000Y-81280000D03*
X165100000Y-83820000D03*
X165100000Y-86360000D03*
X162560000Y-86360000D03*
X162560000Y-83820000D03*
X162560000Y-81280000D03*
X162560000Y-78740000D03*
X162560000Y-76200000D03*
X162560000Y-73660000D03*
X160020000Y-73660000D03*
X160020000Y-76200000D03*
X160020000Y-78740000D03*
X160020000Y-81280000D03*
X160020000Y-83820000D03*
X160020000Y-86360000D03*
X157480000Y-86360000D03*
X157480000Y-83820000D03*
X157480000Y-81280000D03*
X157480000Y-78740000D03*
X157480000Y-76200000D03*
X157480000Y-73660000D03*
D13*
X154940000Y-73660000D03*
D14*
X154940000Y-76200000D03*
X154940000Y-78740000D03*
X154940000Y-81280000D03*
X154940000Y-83820000D03*
X154940000Y-86360000D03*
X152400000Y-86360000D03*
X152400000Y-83820000D03*
X152400000Y-81280000D03*
X152400000Y-78740000D03*
X152400000Y-76200000D03*
X152400000Y-73660000D03*
X149860000Y-73660000D03*
X149860000Y-76200000D03*
X149860000Y-78740000D03*
X149860000Y-81280000D03*
X149860000Y-83820000D03*
X149860000Y-86360000D03*
X147320000Y-86360000D03*
X147320000Y-83820000D03*
X147320000Y-81280000D03*
X147320000Y-78740000D03*
X147320000Y-76200000D03*
X147320000Y-73660000D03*
D13*
X144780000Y-73660000D03*
D14*
X144780000Y-76200000D03*
X144780000Y-78740000D03*
X144780000Y-81280000D03*
X144780000Y-83820000D03*
X144780000Y-86360000D03*
X142240000Y-86360000D03*
X142240000Y-83820000D03*
X142240000Y-81280000D03*
X142240000Y-78740000D03*
X142240000Y-76200000D03*
X142240000Y-73660000D03*
X139700000Y-73660000D03*
X139700000Y-76200000D03*
X139700000Y-78740000D03*
X139700000Y-81280000D03*
X139700000Y-83820000D03*
X139700000Y-86360000D03*
X137160000Y-86360000D03*
X137160000Y-83820000D03*
X137160000Y-81280000D03*
X137160000Y-78740000D03*
X137160000Y-76200000D03*
X137160000Y-73660000D03*
D13*
X134620000Y-73660000D03*
D14*
X134620000Y-76200000D03*
X134620000Y-78740000D03*
X134620000Y-81280000D03*
X134620000Y-83820000D03*
X134620000Y-86360000D03*
X132080000Y-86360000D03*
X132080000Y-83820000D03*
X132080000Y-81280000D03*
X132080000Y-78740000D03*
X132080000Y-76200000D03*
X132080000Y-73660000D03*
X129540000Y-73660000D03*
X129540000Y-76200000D03*
X129540000Y-78740000D03*
X129540000Y-81280000D03*
X129540000Y-83820000D03*
X129540000Y-86360000D03*
X127000000Y-86360000D03*
X127000000Y-83820000D03*
X127000000Y-81280000D03*
X127000000Y-78740000D03*
X127000000Y-76200000D03*
X127000000Y-73660000D03*
D13*
X124460000Y-73660000D03*
D14*
X124460000Y-76200000D03*
X124460000Y-78740000D03*
X124460000Y-81280000D03*
X124460000Y-83820000D03*
X124460000Y-86360000D03*
X121920000Y-86360000D03*
X121920000Y-83820000D03*
X121920000Y-81280000D03*
X121920000Y-78740000D03*
X121920000Y-76200000D03*
X121920000Y-73660000D03*
X119380000Y-73660000D03*
X119380000Y-76200000D03*
X119380000Y-78740000D03*
X119380000Y-81280000D03*
X119380000Y-83820000D03*
X119380000Y-86360000D03*
X116840000Y-86360000D03*
X116840000Y-83820000D03*
X116840000Y-81280000D03*
X116840000Y-78740000D03*
X116840000Y-76200000D03*
X116840000Y-73660000D03*
D13*
X127000000Y-88900000D03*
D14*
X127000000Y-91440000D03*
X127000000Y-93980000D03*
X127000000Y-96520000D03*
X127000000Y-99060000D03*
X127000000Y-101600000D03*
X124460000Y-101600000D03*
X124460000Y-99060000D03*
X124460000Y-96520000D03*
X124460000Y-93980000D03*
X124460000Y-91440000D03*
X124460000Y-88900000D03*
X121920000Y-88900000D03*
X121920000Y-91440000D03*
X121920000Y-93980000D03*
X121920000Y-96520000D03*
X121920000Y-99060000D03*
X121920000Y-101600000D03*
X119380000Y-101600000D03*
X119380000Y-99060000D03*
X119380000Y-96520000D03*
X119380000Y-93980000D03*
X119380000Y-91440000D03*
X119380000Y-88900000D03*
D13*
X116840000Y-88900000D03*
D14*
X116840000Y-91440000D03*
X116840000Y-93980000D03*
X116840000Y-96520000D03*
X116840000Y-99060000D03*
X116840000Y-101600000D03*
X114300000Y-101600000D03*
X114300000Y-99060000D03*
X114300000Y-96520000D03*
X114300000Y-93980000D03*
X114300000Y-91440000D03*
X114300000Y-88900000D03*
X111760000Y-88900000D03*
X111760000Y-91440000D03*
X111760000Y-93980000D03*
X111760000Y-96520000D03*
X111760000Y-99060000D03*
X111760000Y-101600000D03*
X109220000Y-101600000D03*
X109220000Y-99060000D03*
X109220000Y-96520000D03*
X109220000Y-93980000D03*
X109220000Y-91440000D03*
X109220000Y-88900000D03*
D13*
X139700000Y-88900000D03*
D14*
X139700000Y-91440000D03*
X139700000Y-93980000D03*
X139700000Y-96520000D03*
X139700000Y-99060000D03*
X139700000Y-101600000D03*
X137160000Y-101600000D03*
X137160000Y-99060000D03*
X137160000Y-96520000D03*
X137160000Y-93980000D03*
X137160000Y-91440000D03*
X137160000Y-88900000D03*
X134620000Y-88900000D03*
X134620000Y-91440000D03*
X134620000Y-93980000D03*
X134620000Y-96520000D03*
X134620000Y-99060000D03*
X134620000Y-101600000D03*
X132080000Y-101600000D03*
X132080000Y-99060000D03*
X132080000Y-96520000D03*
X132080000Y-93980000D03*
X132080000Y-91440000D03*
X132080000Y-88900000D03*
D13*
X172720000Y-88900000D03*
D14*
X172720000Y-91440000D03*
X172720000Y-93980000D03*
X172720000Y-96520000D03*
X172720000Y-99060000D03*
X172720000Y-101600000D03*
X170180000Y-101600000D03*
X170180000Y-99060000D03*
X170180000Y-96520000D03*
X170180000Y-93980000D03*
X170180000Y-91440000D03*
X170180000Y-88900000D03*
X167640000Y-88900000D03*
X167640000Y-91440000D03*
X167640000Y-93980000D03*
X167640000Y-96520000D03*
X167640000Y-99060000D03*
X167640000Y-101600000D03*
X165100000Y-101600000D03*
X165100000Y-99060000D03*
X165100000Y-96520000D03*
X165100000Y-93980000D03*
X165100000Y-91440000D03*
X165100000Y-88900000D03*
D13*
X142240000Y-88900000D03*
D14*
X144780000Y-88900000D03*
X147320000Y-88900000D03*
X149860000Y-88900000D03*
X152400000Y-88900000D03*
X154940000Y-88900000D03*
X154940000Y-91440000D03*
X152400000Y-91440000D03*
X149860000Y-91440000D03*
X147320000Y-91440000D03*
X144780000Y-91440000D03*
X142240000Y-91440000D03*
X142240000Y-93980000D03*
X144780000Y-93980000D03*
X147320000Y-93980000D03*
X149860000Y-93980000D03*
X152400000Y-93980000D03*
X154940000Y-93980000D03*
X154940000Y-96520000D03*
X152400000Y-96520000D03*
X149860000Y-96520000D03*
X147320000Y-96520000D03*
X144780000Y-96520000D03*
X142240000Y-96520000D03*
D13*
X185420000Y-88900000D03*
D14*
X185420000Y-91440000D03*
X185420000Y-93980000D03*
X185420000Y-96520000D03*
X185420000Y-99060000D03*
X185420000Y-101600000D03*
X182880000Y-101600000D03*
X182880000Y-99060000D03*
X182880000Y-96520000D03*
X182880000Y-93980000D03*
X182880000Y-91440000D03*
X182880000Y-88900000D03*
X180340000Y-88900000D03*
X180340000Y-91440000D03*
X180340000Y-93980000D03*
X180340000Y-96520000D03*
X180340000Y-99060000D03*
X180340000Y-101600000D03*
X177800000Y-101600000D03*
X177800000Y-99060000D03*
X177800000Y-96520000D03*
X177800000Y-93980000D03*
X177800000Y-91440000D03*
X177800000Y-88900000D03*
D13*
X114300000Y-78740000D03*
D14*
X114300000Y-81280000D03*
X114300000Y-83820000D03*
X114300000Y-86360000D03*
D13*
X109220000Y-104140000D03*
D14*
X111760000Y-104140000D03*
X114300000Y-104140000D03*
X116840000Y-104140000D03*
D13*
X119380000Y-104140000D03*
D14*
X121920000Y-104140000D03*
D13*
X129540000Y-104140000D03*
D14*
X132080000Y-104140000D03*
X134620000Y-104140000D03*
X137160000Y-104140000D03*
D13*
X162560000Y-88900000D03*
D14*
X162560000Y-91440000D03*
X162560000Y-93980000D03*
X162560000Y-96520000D03*
D13*
X160020000Y-88900000D03*
D14*
X160020000Y-91440000D03*
X160020000Y-93980000D03*
X160020000Y-96520000D03*
D13*
X157480000Y-88900000D03*
D14*
X157480000Y-91440000D03*
X157480000Y-93980000D03*
X157480000Y-96520000D03*
D13*
X165100000Y-104140000D03*
D14*
X167640000Y-104140000D03*
X170180000Y-104140000D03*
X172720000Y-104140000D03*
D13*
X195580000Y-96520000D03*
D14*
X195580000Y-99060000D03*
X195580000Y-101600000D03*
X195580000Y-104140000D03*
D13*
X193040000Y-96520000D03*
D14*
X193040000Y-99060000D03*
X193040000Y-101600000D03*
X193040000Y-104140000D03*
D13*
X190500000Y-96520000D03*
D14*
X190500000Y-99060000D03*
X190500000Y-101600000D03*
X190500000Y-104140000D03*
D13*
X187960000Y-96520000D03*
D14*
X187960000Y-99060000D03*
X187960000Y-101600000D03*
X187960000Y-104140000D03*
D13*
X185420000Y-104140000D03*
X182880000Y-104140000D03*
X187960000Y-73660000D03*
X187960000Y-76200000D03*
X187960000Y-78740000D03*
X190500000Y-78740000D03*
X111760000Y-81280000D03*
X109220000Y-81280000D03*
X109220000Y-83820000D03*
X111760000Y-83820000D03*
X109220000Y-86360000D03*
X111760000Y-86360000D03*
X129540000Y-88900000D03*
X129540000Y-101600000D03*
X129540000Y-99060000D03*
X129540000Y-91440000D03*
X139700000Y-104140000D03*
X142240000Y-104140000D03*
X142240000Y-101600000D03*
X142240000Y-99060000D03*
X144780000Y-99060000D03*
X144780000Y-101600000D03*
X144780000Y-104140000D03*
X157480000Y-99060000D03*
X160020000Y-99060000D03*
X162560000Y-99060000D03*
X162560000Y-101600000D03*
X160020000Y-101600000D03*
X160020000Y-104140000D03*
X162560000Y-104140000D03*
X175260000Y-101600000D03*
X175260000Y-99060000D03*
X175260000Y-91440000D03*
X175260000Y-88900000D03*
X175260000Y-93980000D03*
X175260000Y-96520000D03*
X129540000Y-93980000D03*
X129540000Y-96520000D03*
D12*
X124460000Y-104140000D03*
D13*
X127000000Y-104140000D03*
D15*
X154940000Y-99060000D02*
X154940000Y-101600000D01*
X152400000Y-104140000D02*
X154940000Y-104140000D01*
X154940000Y-104140000D02*
X157480000Y-104140000D01*
X152400000Y-99060000D02*
X151130000Y-100330000D01*
X151130000Y-102870000D02*
X152400000Y-104140000D01*
X151130000Y-100330000D02*
X151130000Y-102870000D01*
X149860000Y-99060000D02*
X147320000Y-101600000D01*
X147320000Y-99060000D02*
X146050000Y-100330000D01*
X146050000Y-102870000D02*
X147320000Y-104140000D01*
X146050000Y-100330000D02*
X146050000Y-102870000D01*
X177800000Y-104140000D02*
X177800000Y-106172000D01*
X127000000Y-106172000D02*
X127000000Y-104140000D01*
X127762000Y-106934000D02*
X127000000Y-106172000D01*
X177038000Y-106934000D02*
X127762000Y-106934000D01*
X177800000Y-106172000D02*
X177038000Y-106934000D01*
M02*
