M48
INCH,TZ
T1C0.039
%
G90
G05
T1
X43000Y-32000
X43000Y-33000
X43000Y-34000
X43000Y-35000
X43000Y-36000
X43000Y-37000
X43000Y-38000
X43000Y-39000
X43000Y-40000
X43000Y-41000
X44000Y-32000
X44000Y-33000
X44000Y-34000
X44000Y-35000
X44000Y-36000
X44000Y-37000
X44000Y-38000
X44000Y-39000
X44000Y-40000
X44000Y-41000
X45000Y-31000
X45000Y-32000
X45000Y-33000
X45000Y-34000
X45000Y-35000
X45000Y-36000
X45000Y-37000
X45000Y-38000
X45000Y-39000
X45000Y-40000
X45000Y-41000
X46000Y-29000
X46000Y-30000
X46000Y-31000
X46000Y-32000
X46000Y-33000
X46000Y-34000
X46000Y-35000
X46000Y-36000
X46000Y-37000
X46000Y-38000
X46000Y-39000
X46000Y-40000
X46000Y-41000
X47000Y-29000
X47000Y-30000
X47000Y-31000
X47000Y-32000
X47000Y-33000
X47000Y-34000
X47000Y-35000
X47000Y-36000
X47000Y-37000
X47000Y-38000
X47000Y-39000
X47000Y-40000
X47000Y-41000
X48000Y-29000
X48000Y-30000
X48000Y-31000
X48000Y-32000
X48000Y-33000
X48000Y-34000
X48000Y-35000
X48000Y-36000
X48000Y-37000
X48000Y-38000
X48000Y-39000
X48000Y-40000
X48000Y-41000
X49000Y-29000
X49000Y-30000
X49000Y-31000
X49000Y-32000
X49000Y-33000
X49000Y-34000
X49000Y-35000
X49000Y-36000
X49000Y-37000
X49000Y-38000
X49000Y-39000
X49000Y-40000
X49000Y-41000
X50000Y-29000
X50000Y-30000
X50000Y-31000
X50000Y-32000
X50000Y-33000
X50000Y-34000
X50000Y-35000
X50000Y-36000
X50000Y-37000
X50000Y-38000
X50000Y-39000
X50000Y-40000
X50000Y-41000
X51000Y-29000
X51000Y-30000
X51000Y-31000
X51000Y-32000
X51000Y-33000
X51000Y-34000
X51000Y-35000
X51000Y-36000
X51000Y-37000
X51000Y-38000
X51000Y-39000
X51000Y-40000
X51000Y-41000
X52000Y-29000
X52000Y-30000
X52000Y-31000
X52000Y-32000
X52000Y-33000
X52000Y-34000
X52000Y-35000
X52000Y-36000
X52000Y-37000
X52000Y-38000
X52000Y-39000
X52000Y-40000
X52000Y-41000
X53000Y-29000
X53000Y-30000
X53000Y-31000
X53000Y-32000
X53000Y-33000
X53000Y-34000
X53000Y-35000
X53000Y-36000
X53000Y-37000
X53000Y-38000
X53000Y-39000
X53000Y-40000
X53000Y-41000
X54000Y-29000
X54000Y-30000
X54000Y-31000
X54000Y-32000
X54000Y-33000
X54000Y-34000
X54000Y-35000
X54000Y-36000
X54000Y-37000
X54000Y-38000
X54000Y-39000
X54000Y-40000
X54000Y-41000
X55000Y-29000
X55000Y-30000
X55000Y-31000
X55000Y-32000
X55000Y-33000
X55000Y-34000
X55000Y-35000
X55000Y-36000
X55000Y-37000
X55000Y-38000
X55000Y-39000
X55000Y-40000
X55000Y-41000
X56000Y-29000
X56000Y-30000
X56000Y-31000
X56000Y-32000
X56000Y-33000
X56000Y-34000
X56000Y-35000
X56000Y-36000
X56000Y-37000
X56000Y-38000
X56000Y-39000
X56000Y-40000
X56000Y-41000
X57000Y-29000
X57000Y-30000
X57000Y-31000
X57000Y-32000
X57000Y-33000
X57000Y-34000
X57000Y-35000
X57000Y-36000
X57000Y-37000
X57000Y-38000
X57000Y-39000
X57000Y-40000
X57000Y-41000
X58000Y-29000
X58000Y-30000
X58000Y-31000
X58000Y-32000
X58000Y-33000
X58000Y-34000
X58000Y-35000
X58000Y-36000
X58000Y-37000
X58000Y-38000
X58000Y-39000
X58000Y-40000
X58000Y-41000
X59000Y-29000
X59000Y-30000
X59000Y-31000
X59000Y-32000
X59000Y-33000
X59000Y-34000
X59000Y-35000
X59000Y-36000
X59000Y-37000
X59000Y-38000
X59000Y-39000
X59000Y-40000
X59000Y-41000
X60000Y-29000
X60000Y-30000
X60000Y-31000
X60000Y-32000
X60000Y-33000
X60000Y-34000
X60000Y-35000
X60000Y-36000
X60000Y-37000
X60000Y-38000
X60000Y-39000
X60000Y-40000
X60000Y-41000
X61000Y-29000
X61000Y-30000
X61000Y-31000
X61000Y-32000
X61000Y-33000
X61000Y-34000
X61000Y-35000
X61000Y-36000
X61000Y-37000
X61000Y-38000
X61000Y-39000
X61000Y-40000
X61000Y-41000
X62000Y-29000
X62000Y-30000
X62000Y-31000
X62000Y-32000
X62000Y-33000
X62000Y-34000
X62000Y-35000
X62000Y-36000
X62000Y-37000
X62000Y-38000
X62000Y-39000
X62000Y-40000
X62000Y-41000
X63000Y-29000
X63000Y-30000
X63000Y-31000
X63000Y-32000
X63000Y-33000
X63000Y-34000
X63000Y-35000
X63000Y-36000
X63000Y-37000
X63000Y-38000
X63000Y-39000
X63000Y-40000
X63000Y-41000
X64000Y-29000
X64000Y-30000
X64000Y-31000
X64000Y-32000
X64000Y-33000
X64000Y-34000
X64000Y-35000
X64000Y-36000
X64000Y-37000
X64000Y-38000
X64000Y-39000
X64000Y-40000
X64000Y-41000
X65000Y-29000
X65000Y-30000
X65000Y-31000
X65000Y-32000
X65000Y-33000
X65000Y-34000
X65000Y-35000
X65000Y-36000
X65000Y-37000
X65000Y-38000
X65000Y-39000
X65000Y-40000
X65000Y-41000
X66000Y-29000
X66000Y-30000
X66000Y-31000
X66000Y-32000
X66000Y-33000
X66000Y-34000
X66000Y-35000
X66000Y-36000
X66000Y-37000
X66000Y-38000
X66000Y-39000
X66000Y-40000
X66000Y-41000
X67000Y-29000
X67000Y-30000
X67000Y-31000
X67000Y-32000
X67000Y-33000
X67000Y-34000
X67000Y-35000
X67000Y-36000
X67000Y-37000
X67000Y-38000
X67000Y-39000
X67000Y-40000
X67000Y-41000
X68000Y-29000
X68000Y-30000
X68000Y-31000
X68000Y-32000
X68000Y-33000
X68000Y-34000
X68000Y-35000
X68000Y-36000
X68000Y-37000
X68000Y-38000
X68000Y-39000
X68000Y-40000
X68000Y-41000
X69000Y-29000
X69000Y-30000
X69000Y-31000
X69000Y-32000
X69000Y-33000
X69000Y-34000
X69000Y-35000
X69000Y-36000
X69000Y-37000
X69000Y-38000
X69000Y-39000
X69000Y-40000
X69000Y-41000
X70000Y-29000
X70000Y-30000
X70000Y-31000
X70000Y-32000
X70000Y-33000
X70000Y-34000
X70000Y-35000
X70000Y-36000
X70000Y-37000
X70000Y-38000
X70000Y-39000
X70000Y-40000
X70000Y-41000
X71000Y-29000
X71000Y-30000
X71000Y-31000
X71000Y-32000
X71000Y-33000
X71000Y-34000
X71000Y-35000
X71000Y-36000
X71000Y-37000
X71000Y-38000
X71000Y-39000
X71000Y-40000
X71000Y-41000
X72000Y-29000
X72000Y-30000
X72000Y-31000
X72000Y-32000
X72000Y-33000
X72000Y-34000
X72000Y-35000
X72000Y-36000
X72000Y-37000
X72000Y-38000
X72000Y-39000
X72000Y-40000
X72000Y-41000
X73000Y-29000
X73000Y-30000
X73000Y-31000
X73000Y-32000
X73000Y-33000
X73000Y-34000
X73000Y-35000
X73000Y-36000
X73000Y-37000
X73000Y-38000
X73000Y-39000
X73000Y-40000
X73000Y-41000
X74000Y-29000
X74000Y-30000
X74000Y-31000
X74000Y-32000
X74000Y-33000
X74000Y-34000
X74000Y-35000
X74000Y-36000
X74000Y-37000
X74000Y-38000
X74000Y-39000
X74000Y-40000
X74000Y-41000
X75000Y-31000
X75000Y-32000
X75000Y-33000
X75000Y-34000
X75000Y-35000
X75000Y-36000
X75000Y-37000
X75000Y-38000
X75000Y-39000
X75000Y-40000
X75000Y-41000
X76000Y-32000
X76000Y-33000
X76000Y-34000
X76000Y-35000
X76000Y-36000
X76000Y-37000
X76000Y-38000
X76000Y-39000
X76000Y-40000
X76000Y-41000
X77000Y-32000
X77000Y-33000
X77000Y-34000
X77000Y-35000
X77000Y-36000
X77000Y-37000
X77000Y-38000
X77000Y-39000
X77000Y-40000
X77000Y-41000
T0
M30
